<?xml version="1.0" encoding="UTF-8"?>
<svg xmlns="http://www.w3.org/2000/svg" viewBox="0 0 1200 630">
  <defs>
    <linearGradient id="bg" x1="0%" y1="0%" x2="100%" y2="100%">
      <stop offset="0%" stop-color="#000000"/>
      <stop offset="100%" stop-color="#0a0a14"/>
    </linearGradient>
    <linearGradient id="gr" x1="0%" y1="0%" x2="100%" y2="100%">
      <stop offset="0%" stop-color="#00d4ff"/>
      <stop offset="50%" stop-color="#8b5cf6"/>
      <stop offset="100%" stop-color="#e82127"/>
    </linearGradient>
    <radialGradient id="glow" cx="50%" cy="50%">
      <stop offset="0%" stop-color="#00d4ff" stop-opacity="0.3"/>
      <stop offset="100%" stop-color="transparent" stop-opacity="0"/>
    </radialGradient>
  </defs>
  <rect width="1200" height="630" fill="url(#bg)"/>
  <rect width="1200" height="630" fill="url(#glow)"/>
  <g opacity="0.1">
    <line x1="0" y1="100" x2="1200" y2="100" stroke="#fff" stroke-width="0.5"/>
    <line x1="0" y1="200" x2="1200" y2="200" stroke="#fff" stroke-width="0.5"/>
    <line x1="0" y1="300" x2="1200" y2="300" stroke="#fff" stroke-width="0.5"/>
    <line x1="0" y1="400" x2="1200" y2="400" stroke="#fff" stroke-width="0.5"/>
    <line x1="0" y1="500" x2="1200" y2="500" stroke="#fff" stroke-width="0.5"/>
    <line x1="200" y1="0" x2="200" y2="630" stroke="#fff" stroke-width="0.5"/>
    <line x1="400" y1="0" x2="400" y2="630" stroke="#fff" stroke-width="0.5"/>
    <line x1="600" y1="0" x2="600" y2="630" stroke="#fff" stroke-width="0.5"/>
    <line x1="800" y1="0" x2="800" y2="630" stroke="#fff" stroke-width="0.5"/>
    <line x1="1000" y1="0" x2="1000" y2="630" stroke="#fff" stroke-width="0.5"/>
  </g>
  <g transform="translate(600, 220)">
    <circle r="100" stroke="url(#gr)" stroke-width="3" fill="none" opacity="0.3"/>
    <path d="M0 -80L70 -50L70 30L0 60L-70 30L-70 -50L0 -80Z" stroke="url(#gr)" stroke-width="3" fill="none"/>
    <text x="0" y="20" text-anchor="middle" font-family="Arial Black, sans-serif" font-size="80" font-weight="900" fill="url(#gr)">P</text>
  </g>
  <text x="600" y="420" text-anchor="middle" font-family="Inter, Arial, sans-serif" font-size="56" font-weight="900" fill="#fff">primecodevaultlink</text>
  <text x="600" y="475" text-anchor="middle" font-family="Inter, Arial, sans-serif" font-size="22" font-weight="400" fill="#b3b3b3">Engineering Calm Technology</text>
  <text x="600" y="565" text-anchor="middle" font-family="JetBrains Mono, monospace" font-size="18" fill="#00d4ff">primecodevaultlink.com</text>
</svg>
